<mxfile host="app.diagrams.net" agent="Mozilla/5.0 (Windows NT 10.0; Win64; x64) AppleWebKit/537.36 (KHTML, like Gecko) Chrome/131.0.0.0 Safari/537.36" version="25.0.3">
  <diagram id="bTwyjA9qRH31gnNdOOHX" name="Page-1">
    <mxGraphModel dx="1485" dy="755" grid="0" gridSize="10" guides="0" tooltips="1" connect="0" arrows="0" fold="1" page="0" pageScale="1" pageWidth="1200" pageHeight="1920" background="#ffffff" math="0" shadow="0">
      <root>
        <object label="" id="0">
          <mxCell />
        </object>
        <mxCell id="1" parent="0" />
        <mxCell id="3" value="&lt;font color=&quot;#000000&quot;&gt;Products&lt;/font&gt;" style="swimlane;fontStyle=0;childLayout=stackLayout;horizontal=1;startSize=30;horizontalStack=0;resizeParent=1;resizeParentMax=0;resizeLast=0;collapsible=1;marginBottom=0;whiteSpace=wrap;html=1;rounded=1;strokeColor=#080808;strokeWidth=3;fillColor=none;perimeterSpacing=2;" parent="1" vertex="1">
          <mxGeometry x="61" y="28" width="230" height="120" as="geometry" />
        </mxCell>
        <mxCell id="4" value="&lt;font color=&quot;#212121&quot;&gt;id&lt;/font&gt;" style="text;align=left;verticalAlign=middle;spacingLeft=4;spacingRight=4;overflow=hidden;points=[[0,0.5],[1,0.5]];portConstraint=eastwest;rotatable=0;whiteSpace=wrap;html=1;rounded=1;strokeWidth=3;strokeColor=#080808;" parent="3" vertex="1">
          <mxGeometry y="30" width="230" height="30" as="geometry" />
        </mxCell>
        <mxCell id="5" value="&lt;font color=&quot;#000000&quot;&gt;product_name&lt;/font&gt;" style="text;align=left;verticalAlign=middle;spacingLeft=4;spacingRight=4;overflow=hidden;points=[[0,0.5],[1,0.5]];portConstraint=eastwest;rotatable=0;whiteSpace=wrap;html=1;rounded=1;strokeWidth=3;strokeColor=#080808;" parent="3" vertex="1">
          <mxGeometry y="60" width="230" height="30" as="geometry" />
        </mxCell>
        <mxCell id="7" value="&lt;font color=&quot;#000000&quot;&gt;product_code&lt;/font&gt;" style="text;align=left;verticalAlign=middle;spacingLeft=4;spacingRight=4;overflow=hidden;points=[[0,0.5],[1,0.5]];portConstraint=eastwest;rotatable=0;whiteSpace=wrap;html=1;rounded=1;strokeWidth=3;strokeColor=#080808;" parent="3" vertex="1">
          <mxGeometry y="90" width="230" height="30" as="geometry" />
        </mxCell>
        <mxCell id="8" value="&lt;font color=&quot;#0f0f0f&quot;&gt;Materials&lt;/font&gt;" style="swimlane;fontStyle=0;childLayout=stackLayout;horizontal=1;startSize=30;horizontalStack=0;resizeParent=1;resizeParentMax=0;resizeLast=0;collapsible=1;marginBottom=0;whiteSpace=wrap;html=1;rounded=1;strokeColor=#080808;strokeWidth=2;fillColor=none;perimeterSpacing=2;" parent="1" vertex="1">
          <mxGeometry x="653" y="111" width="230" height="90" as="geometry" />
        </mxCell>
        <mxCell id="9" value="&lt;font color=&quot;#212121&quot;&gt;id&lt;/font&gt;" style="text;align=left;verticalAlign=middle;spacingLeft=4;spacingRight=4;overflow=hidden;points=[[0,0.5],[1,0.5]];portConstraint=eastwest;rotatable=0;whiteSpace=wrap;html=1;rounded=1;strokeWidth=3;strokeColor=#080808;" parent="8" vertex="1">
          <mxGeometry y="30" width="230" height="30" as="geometry" />
        </mxCell>
        <mxCell id="10" value="&lt;font color=&quot;#000000&quot;&gt;material_name&lt;/font&gt;" style="text;align=left;verticalAlign=middle;spacingLeft=4;spacingRight=4;overflow=hidden;points=[[0,0.5],[1,0.5]];portConstraint=eastwest;rotatable=0;whiteSpace=wrap;html=1;rounded=1;strokeWidth=3;strokeColor=#080808;" parent="8" vertex="1">
          <mxGeometry y="60" width="230" height="30" as="geometry" />
        </mxCell>
        <mxCell id="12" value="&lt;font color=&quot;#000000&quot;&gt;Product_materials&lt;/font&gt;" style="swimlane;fontStyle=0;childLayout=stackLayout;horizontal=1;startSize=30;horizontalStack=0;resizeParent=1;resizeParentMax=0;resizeLast=0;collapsible=1;marginBottom=0;whiteSpace=wrap;html=1;rounded=1;strokeColor=#080808;strokeWidth=3;fillColor=none;perimeterSpacing=2;" parent="1" vertex="1">
          <mxGeometry x="211" y="266" width="230" height="150" as="geometry" />
        </mxCell>
        <mxCell id="13" value="&lt;font color=&quot;#212121&quot;&gt;id&lt;/font&gt;" style="text;align=left;verticalAlign=middle;spacingLeft=4;spacingRight=4;overflow=hidden;points=[[0,0.5],[1,0.5]];portConstraint=eastwest;rotatable=0;whiteSpace=wrap;html=1;rounded=1;strokeWidth=3;strokeColor=#080808;" parent="12" vertex="1">
          <mxGeometry y="30" width="230" height="30" as="geometry" />
        </mxCell>
        <mxCell id="14" value="&lt;font color=&quot;#000000&quot;&gt;product_id&lt;/font&gt;" style="text;align=left;verticalAlign=middle;spacingLeft=4;spacingRight=4;overflow=hidden;points=[[0,0.5],[1,0.5]];portConstraint=eastwest;rotatable=0;whiteSpace=wrap;html=1;rounded=1;strokeWidth=3;strokeColor=#000000;" parent="12" vertex="1">
          <mxGeometry y="60" width="230" height="30" as="geometry" />
        </mxCell>
        <mxCell id="15" value="&lt;font color=&quot;#0d0c0c&quot;&gt;material_id&lt;/font&gt;" style="text;align=left;verticalAlign=middle;spacingLeft=4;spacingRight=4;overflow=hidden;points=[[0,0.5],[1,0.5]];portConstraint=eastwest;rotatable=0;whiteSpace=wrap;html=1;rounded=1;strokeWidth=3;strokeColor=#000000;" parent="12" vertex="1">
          <mxGeometry y="90" width="230" height="30" as="geometry" />
        </mxCell>
        <mxCell id="16" value="&lt;font color=&quot;#000000&quot;&gt;quantity&lt;/font&gt;" style="text;align=left;verticalAlign=middle;spacingLeft=4;spacingRight=4;overflow=hidden;points=[[0,0.5],[1,0.5]];portConstraint=eastwest;rotatable=0;whiteSpace=wrap;html=1;rounded=1;strokeWidth=3;strokeColor=#080808;" parent="12" vertex="1">
          <mxGeometry y="120" width="230" height="30" as="geometry" />
        </mxCell>
        <mxCell id="17" value="&lt;font color=&quot;#000000&quot;&gt;Warehouses&lt;/font&gt;" style="swimlane;fontStyle=0;childLayout=stackLayout;horizontal=1;startSize=30;horizontalStack=0;resizeParent=1;resizeParentMax=0;resizeLast=0;collapsible=1;marginBottom=0;whiteSpace=wrap;html=1;rounded=1;strokeColor=#080808;strokeWidth=3;fillColor=none;perimeterSpacing=2;" parent="1" vertex="1">
          <mxGeometry x="635" y="310" width="230" height="150" as="geometry" />
        </mxCell>
        <mxCell id="18" value="&lt;font color=&quot;#212121&quot;&gt;id&lt;/font&gt;" style="text;align=left;verticalAlign=middle;spacingLeft=4;spacingRight=4;overflow=hidden;points=[[0,0.5],[1,0.5]];portConstraint=eastwest;rotatable=0;whiteSpace=wrap;html=1;rounded=1;strokeWidth=3;strokeColor=#080808;" parent="17" vertex="1">
          <mxGeometry y="30" width="230" height="30" as="geometry" />
        </mxCell>
        <mxCell id="20" value="&lt;font color=&quot;#0d0c0c&quot;&gt;material_id&lt;/font&gt;" style="text;align=left;verticalAlign=middle;spacingLeft=4;spacingRight=4;overflow=hidden;points=[[0,0.5],[1,0.5]];portConstraint=eastwest;rotatable=0;whiteSpace=wrap;html=1;rounded=1;strokeWidth=3;strokeColor=#080808;" parent="17" vertex="1">
          <mxGeometry y="60" width="230" height="30" as="geometry" />
        </mxCell>
        <mxCell id="19" value="&lt;font color=&quot;#000000&quot;&gt;remainder&lt;/font&gt;" style="text;align=left;verticalAlign=middle;spacingLeft=4;spacingRight=4;overflow=hidden;points=[[0,0.5],[1,0.5]];portConstraint=eastwest;rotatable=0;whiteSpace=wrap;html=1;rounded=1;strokeWidth=3;" parent="17" vertex="1">
          <mxGeometry y="90" width="230" height="30" as="geometry" />
        </mxCell>
        <mxCell id="21" value="&lt;font color=&quot;#000000&quot;&gt;price&lt;/font&gt;" style="text;align=left;verticalAlign=middle;spacingLeft=4;spacingRight=4;overflow=hidden;points=[[0,0.5],[1,0.5]];portConstraint=eastwest;rotatable=0;whiteSpace=wrap;html=1;rounded=1;strokeWidth=3;strokeColor=#080808;" parent="17" vertex="1">
          <mxGeometry y="120" width="230" height="30" as="geometry" />
        </mxCell>
        <mxCell id="28" value="" style="edgeStyle=orthogonalEdgeStyle;elbow=vertical;sourcePerimeterSpacing=0;targetPerimeterSpacing=0;startArrow=none;endArrow=none;rounded=1;curved=1;fontColor=#000000;strokeColor=#292323;exitX=0;exitY=0.406;exitDx=0;exitDy=0;exitPerimeter=0;entryX=1.015;entryY=0.5;entryDx=0;entryDy=0;entryPerimeter=0;" parent="1" source="9" target="15" edge="1">
          <mxGeometry relative="1" as="geometry">
            <mxPoint x="438" y="110" as="sourcePoint" />
            <mxPoint x="408" y="240" as="targetPoint" />
          </mxGeometry>
        </mxCell>
        <mxCell id="29" value="" style="edgeStyle=orthogonalEdgeStyle;elbow=vertical;sourcePerimeterSpacing=0;targetPerimeterSpacing=0;startArrow=none;endArrow=none;rounded=1;curved=1;fontColor=#000000;strokeColor=#292323;" parent="1" source="4" target="14" edge="1">
          <mxGeometry relative="1" as="geometry">
            <mxPoint x="647.55" y="95.00999999999995" as="sourcePoint" />
            <mxPoint x="315.00000000000006" y="285.83" as="targetPoint" />
          </mxGeometry>
        </mxCell>
        <mxCell id="30" value="" style="edgeStyle=orthogonalEdgeStyle;elbow=vertical;sourcePerimeterSpacing=0;targetPerimeterSpacing=0;startArrow=none;endArrow=none;rounded=1;curved=1;fontColor=#000000;strokeColor=#292323;exitX=-0.004;exitY=0.683;exitDx=0;exitDy=0;exitPerimeter=0;entryX=-0.009;entryY=0.556;entryDx=0;entryDy=0;entryPerimeter=0;" parent="1" source="9" target="20" edge="1">
          <mxGeometry relative="1" as="geometry">
            <mxPoint x="663" y="163.17999999999995" as="sourcePoint" />
            <mxPoint x="454.45000000000005" y="380.9999999999999" as="targetPoint" />
            <Array as="points">
              <mxPoint x="595" y="162" />
              <mxPoint x="595" y="241" />
              <mxPoint x="582" y="241" />
              <mxPoint x="582" y="371" />
            </Array>
          </mxGeometry>
        </mxCell>
      </root>
    </mxGraphModel>
  </diagram>
</mxfile>
